<svg version="1.0" xmlns="http://www.w3.org/2000/svg" width="2346.000000pt" height="1762.000000pt" viewBox="0 0 2346.000000 1762.000000">
  <path fill="#125b79" d="M 932.6 3.1 C 932.3 3.9 930.3 9.7 928.1 16 C 925.9 22.3 922.7 31.3 921 36 C 919.3 40.7 917 47 916 50 C 915 53 912.7 59.3 911 64 C 907.8 72.6 904.5 81.9 898.5 99 C 896.6 104.2 893.7 112.3 892 117 C 890.3 121.7 888 128 887 131 C 886 134 883.7 140.3 882 145 C 878.8 153.6 875.5 162.9 869.5 180 C 867.6 185.2 864.7 193.3 863 198 C 861.3 202.7 859.2 208.5 858.4 211 C 857.6 213.5 856.5 216.4 856 217.5 C 855.5 218.6 850.3 233 844.5 249.5 C 838.7 266 833 281.9 832 284.7 C 830.9 287.6 829.1 292.4 828 295.2 C 827 298.1 823.6 307.5 820.6 316 C 817.6 324.5 813.5 336 811.5 341.5 C 809.5 347 807 354 806 357 C 805 360 803.4 364.5 802.5 367 C 799.2 375.6 797.1 381.6 789.5 403 C 785.3 414.8 781.2 426.3 780.3 428.5 C 779.5 430.7 778 435 777 438 C 776 441 774.4 445.5 773.5 448 C 770.2 456.6 768.1 462.6 760.5 484 C 756.3 495.8 752.2 507.3 751.3 509.5 C 750.5 511.7 749.2 515.5 748.4 518 C 747.6 520.5 746.5 523.4 746 524.5 C 745.5 525.6 744 529.9 742.5 534 C 737.4 548.6 723.9 586.6 722 591.7 C 717.1 604.7 715.7 608.7 708.9 627.5 C 705 638.5 701.5 648.5 701.3 649.7 C 701 650.9 700.2 652.4 699.4 653.1 C 698.4 653.9 685.3 653.9 648.8 653.1 C 574.5 651.4 512.6 650.1 482 649.5 C 466.9 649.2 444.6 648.7 432.5 648.5 C 411.8 648 382.7 647.4 265 645 C 238.3 644.5 205.9 643.8 193 643.5 C 141.1 642.3 76.8 641 46.5 640.5 C 28.9 640.2 11.7 639.7 8.3 639.4 C 4.4 639 2 639.1 2 639.8 C 2 640.3 6.2 643.9 11.2 647.6 C 16.3 651.4 40.8 669.5 65.5 687.9 C 109.4 720.6 123.5 731 166.5 763 C 178.1 771.6 198.1 786.5 211 796.1 C 223.9 805.7 245.3 821.6 258.6 831.5 C 271.9 841.4 292 856.3 303.2 864.6 C 344.7 895.4 383.9 924.6 398.5 935.5 C 406.8 941.6 424.1 954.5 437 964.1 C 449.9 973.7 471.8 990 485.5 1000.2 C 499.3 1010.4 516.6 1023.3 524 1028.8 C 537.8 1039 539.2 1039.5 540.3 1034.7 C 540.6 1033.5 544 1023.3 548 1012 C 551.9 1000.7 557.5 984.5 560.5 976 C 563.4 967.5 567.2 956.4 568.9 951.5 C 570.6 946.5 574.1 936.5 576.6 929.2 L 581.2 916 L 578.4 913.8 C 576.9 912.6 569.6 907.1 562.1 901.7 C 550 892.8 535.7 882.3 520.5 871 C 517.8 868.9 505.2 859.7 492.5 850.4 C 464.4 829.7 448.3 817.9 429.1 803.7 C 421.1 797.7 413.7 792.4 412.8 791.9 C 411.8 791.4 411 790.4 411 789.7 C 411 788.3 420.6 788.3 508.5 790 C 539.3 790.5 592.6 791.4 627 792 C 661.4 792.6 710.4 793.5 736 794 C 761.6 794.6 785.7 795 789.6 795 L 796.7 795 L 799.3 787.2 C 803.7 773.9 814.6 742.3 821 724 C 824.4 714.4 828 704 829 701 C 831.8 692.7 841.1 665.7 848 646 C 853.4 630.5 863.8 600.5 869 585 C 870 582 873.2 573 876 565 C 878.8 557 881.9 548 883 545 C 884 542 888.3 529.6 892.5 517.5 C 896.7 505.4 901.4 491.7 903 487 C 917.8 443.8 920.9 434.9 921.7 434.7 C 922.7 434.4 924.4 439.4 938 483 C 940.3 490.4 943 499 944 502 C 945 505 947.9 514.2 950.5 522.5 C 953.1 530.7 956.9 542.9 959 549.5 C 961.1 556.1 964.7 567.6 967 575 C 969.3 582.4 972 591 973 594 C 974 597 976.9 606.2 979.5 614.5 C 982 622.7 985.8 634.9 987.9 641.5 C 990 648.1 993.7 659.6 996 667 C 998.3 674.4 1000.9 682.5 1001.7 685 C 1005 695.1 1012.8 720.7 1013.3 723 C 1013.6 724.4 1017.3 737.2 1021.5 751.5 C 1025.7 765.8 1035.2 798.9 1042.6 825 C 1059.8 885.3 1059.8 885.6 1061.3 891.2 C 1061.9 893.9 1062.9 896 1063.4 896 C 1064.7 896 1184.9 815.7 1185.3 814.5 C 1185.5 813.9 1181.8 801.3 1176.9 786.5 C 1172.1 771.6 1167.5 757.2 1166.7 754.5 C 1165.9 751.7 1163.6 744.3 1161.6 738 C 1159.7 731.7 1155.8 719.1 1153 710 C 1150.2 700.9 1146.2 688.3 1144.1 682 C 1142 675.7 1138.1 663.7 1135.5 655.5 C 1133 647.2 1130.5 639.4 1130 638 C 1129.5 636.6 1127.7 630.8 1126 625 C 1124.3 619.2 1122.5 613.4 1122 612 C 1121.5 610.6 1120.4 607.2 1119.6 604.5 C 1118.8 601.7 1116.3 593.4 1114 586 C 1111.8 578.6 1108.5 568 1106.9 562.5 C 1105.2 557 1103 550 1102 547 C 1099.8 540.1 1088 501.9 1075.9 462.2 C 1074.9 458.8 1073.1 453.1 1072 449.5 C 1070.9 445.9 1069.1 440.1 1068 436.5 C 1066.9 432.9 1065.1 427.2 1064.1 423.7 C 1063 420.3 1059.6 409.2 1056.5 399 C 1051 381 1048.9 374.4 1045.5 363 C 1044.6 360 1043.1 355.5 1042.3 353 C 1041.5 350.5 1040.4 347.1 1040 345.5 C 1039.5 343.8 1035.3 329.9 1030.5 314.5 C 1025.7 299.1 1021.4 285.1 1021 283.5 C 1020.6 281.8 1019.6 278.5 1018.7 276 C 1017.9 273.5 1015.8 266.8 1014 261 C 1012.3 255.2 1010.5 249.4 1010 248 C 1009.5 246.6 1007.8 241 1006.1 235.5 C 1004.5 230 1002.2 222.3 1001 218.5 C 999.8 214.6 998 208.7 996.9 205.2 C 995.9 201.8 994.1 196.1 993 192.5 C 991.9 188.9 990.1 183.1 989 179.5 C 987.9 175.9 986.1 170.1 985 166.5 C 983.9 162.9 982.1 157.2 981.1 153.7 C 978.8 146.1 968 111.1 963.8 97.5 C 962.1 92 959.9 85 959 82 C 958 79 955.8 72 954.1 66.5 C 952.5 61 948.3 47.5 945 36.5 C 941.6 25.5 938 13.6 936.9 10.1 C 934.9 3.1 933.4 0.7 932.6 3.1 Z"></path>
  <path fill="#EF6461" d="M 2313 424.6 C 2282.1 432.7 2276.7 434.1 2274 435 C 2272.6 435.4 2267.7 436.8 2263 438 C 2258.3 439.2 2253.4 440.6 2252 441 C 2250.6 441.4 2247.7 442.3 2245.5 442.9 C 2222.9 449.1 2165.1 465.9 2159 468 C 2157.6 468.5 2151.8 470.3 2146 472 C 2140.2 473.7 2134.4 475.5 2133 476 C 2131.6 476.5 2123.8 479 2115.5 481.5 C 2093.5 488.4 2011.4 515.8 1997.3 521.1 C 1986.7 525 1981.3 526.9 1972.5 530 C 1958.3 535 1916.6 550.5 1910.5 553 C 1909.4 553.5 1902.4 556.2 1895 559 C 1887.6 561.8 1875.3 566.6 1867.8 569.6 C 1860.3 572.6 1853.9 575 1853.6 575 C 1853.2 575 1850.8 575.9 1848.2 577.1 C 1845.6 578.3 1842.6 579.6 1841.5 580 C 1840.4 580.4 1837.9 581.5 1836 582.3 C 1834.1 583.1 1824.2 587.2 1814 591.3 C 1797.9 597.8 1765.4 611.5 1756.5 615.4 C 1750.5 618.1 1744.3 620.9 1733.5 625.5 C 1721.7 630.5 1716.6 632.8 1708.3 636.6 C 1705.4 637.9 1700.4 640.2 1697.3 641.6 C 1677.3 650.6 1660.7 658.2 1649.5 663.5 C 1646.8 664.8 1639.1 668.4 1632.5 671.5 C 1583.7 694.5 1520.4 726.1 1466.3 754.6 C 1459.3 758.3 1451.7 762.3 1449.5 763.5 C 1445.5 765.8 1439.2 769.2 1424.5 777 C 1420.1 779.4 1413.9 782.8 1410.7 784.7 C 1407.5 786.5 1404.7 788 1404.5 788 C 1404.3 788 1401.1 789.7 1397.3 791.9 C 1393.6 794 1388.4 796.9 1385.8 798.4 C 1383.1 799.8 1378.9 802.2 1376.3 803.7 C 1370.7 806.7 1338 825.3 1333.3 828.1 C 1331.5 829.2 1328.5 830.8 1326.8 831.9 C 1325 832.9 1319.5 836.1 1314.5 839 C 1309.6 841.9 1303 845.7 1300 847.5 C 1278.2 860.1 1235.5 886.1 1199.7 908.4 C 1122.6 956.6 1038 1013.2 960.8 1068.5 C 889.5 1119.5 819.6 1172.7 745.2 1232.3 C 727.4 1246.6 712.8 1258.1 712.6 1257.9 C 712.4 1257.7 722.3 1217.2 734.7 1168 C 747.1 1118.8 757.6 1076.9 758.1 1075 C 758.5 1073.1 759.3 1069.7 759.9 1067.5 C 760.4 1065.3 762.9 1055.3 765.5 1045.2 C 768.1 1035.1 769.9 1026.3 769.7 1025.6 C 769.4 1024.9 760.5 1019 749.8 1012.5 C 739.2 1006.1 727.8 999.1 724.5 997 C 721.2 994.9 712 989.3 704 984.5 C 696 979.7 686.8 974.1 683.5 972 C 657.5 955.8 651 952.1 651 953.4 C 651 953.7 644.9 978.2 637.4 1007.7 C 608 1124.5 583.8 1220.7 583 1224 C 582.5 1225.9 575.1 1255.4 566.5 1289.5 C 557.9 1323.6 550.5 1353.1 550 1355 C 549.6 1356.9 538.8 1399.9 526 1450.5 C 502.2 1545 477.5 1643.1 459.9 1713.3 C 454.4 1735.3 450.1 1753.4 450.3 1753.7 C 450.6 1753.9 453 1751.8 455.6 1748.9 C 503 1697.3 609.5 1586.8 634.2 1563.6 C 638.7 1559.3 652.6 1545.8 665 1533.6 C 710.6 1488.8 774.2 1429.1 825 1383.4 C 866.2 1346.4 917.2 1301.6 932.5 1289 C 934.8 1287.1 945.2 1278.3 955.6 1269.5 C 1049.1 1190 1164.2 1099.6 1263.5 1027.6 C 1277.8 1017.2 1291.3 1007.4 1293.5 1005.8 C 1299 1001.8 1319.1 987.4 1327 981.9 C 1330.6 979.4 1341.8 971.5 1352 964.4 C 1403.7 928.1 1490.2 870.5 1542 837.7 C 1553.3 830.6 1566.6 822.2 1571.5 819 C 1584.4 810.8 1595.9 803.6 1601.6 800.2 C 1604.3 798.6 1610.3 794.9 1615 792 C 1637.8 777.9 1690.1 746.4 1706.5 737 C 1708.2 736 1719.4 729.5 1731.5 722.5 C 1757.6 707.4 1761.3 705.2 1770.7 699.9 C 1772.7 698.7 1779.4 695 1785.5 691.5 C 1791.5 688.1 1802.1 682.1 1809 678.2 C 1823.3 670.2 1880.6 638.9 1895.5 631 C 1901 628.1 1907.8 624.5 1910.5 623 C 1913.3 621.5 1921.6 617.1 1929.1 613.1 C 1936.6 609.2 1948.3 603 1955.1 599.5 C 1971.4 590.9 2086.6 533.3 2104.5 524.8 C 2112.2 521.1 2126.5 514.3 2136.3 509.6 C 2146.1 504.9 2154.3 501 2154.5 501 C 2154.6 501 2159.4 498.8 2165.1 496.1 C 2170.8 493.5 2178.7 489.8 2182.5 488 C 2186.4 486.2 2192.7 483.3 2196.5 481.5 C 2200.4 479.7 2210 475.3 2218 471.7 C 2226 468.2 2235 464.1 2238 462.7 C 2241 461.3 2245.8 459.2 2248.5 458 C 2251.3 456.8 2256 454.7 2259 453.3 C 2266.7 449.8 2287.5 440.6 2300 435.3 C 2305.8 432.8 2312.3 430 2314.5 429 C 2316.7 428 2321.2 426.1 2324.5 424.7 C 2332.4 421.4 2336.9 419 2335 419.1 C 2334.2 419.1 2324.3 421.6 2313 424.6 Z"></path>
  <path fill="#125b79" d="M 1277 1146.1 C 1269.3 1151.4 1253.1 1162.7 1224 1182.9 C 1214.9 1189.2 1198.1 1200.8 1186.5 1208.8 C 1175 1216.7 1164.9 1223.7 1164.3 1224.4 C 1163.3 1225.3 1164.8 1230.7 1171.1 1249 C 1183 1283.6 1195.1 1318.7 1207.5 1354.5 C 1211.7 1366.6 1216.4 1380.3 1218 1385 C 1219.6 1389.7 1222.5 1398 1224.4 1403.5 C 1228.3 1414.5 1228.4 1415 1227 1415 C 1226 1415 1224.8 1414.1 1214.5 1405 C 1211.7 1402.5 1205.4 1397 1200.4 1392.8 C 1185.7 1380.2 1153.4 1352.4 1138.5 1339.5 C 1117.2 1321.1 1089 1296.8 1086.1 1294.3 C 1084.7 1293.1 1083.1 1292.1 1082.6 1292 C 1082.1 1292 1076.3 1296.4 1069.7 1301.7 C 1063.1 1307.1 1051.5 1316.4 1044 1322.5 C 1036.5 1328.5 1023.6 1338.9 1015.4 1345.6 C 1007.2 1352.2 994.8 1362.3 987.8 1367.9 C 980.7 1373.6 975 1378.5 975.1 1378.9 C 975.1 1379.2 978.8 1382.2 983.3 1385.5 C 987.7 1388.8 997.8 1396.4 1005.6 1402.5 C 1013.5 1408.5 1024 1416.6 1029 1420.5 C 1034.1 1424.3 1041.7 1430.2 1045.9 1433.5 C 1050.2 1436.8 1061 1445.1 1069.9 1452 C 1078.9 1458.9 1089.7 1467.2 1094 1470.5 C 1098.3 1473.8 1107.3 1480.8 1114.1 1486 C 1120.9 1491.2 1130.5 1498.6 1135.5 1502.4 C 1140.4 1506.3 1169.9 1529 1201 1552.9 C 1232.1 1576.8 1261.1 1599.1 1265.5 1602.5 C 1309.1 1636 1331.2 1653.1 1346 1664.5 C 1363 1677.6 1418.9 1720.7 1453.4 1747.2 C 1462.6 1754.3 1470.4 1759.9 1470.6 1759.7 C 1470.8 1759.5 1470.1 1756.7 1469.1 1753.4 C 1466.8 1746.2 1464.1 1737.6 1463 1733.5 C 1462.5 1731.8 1461.2 1727.5 1460.1 1723.7 C 1458.9 1720 1457.1 1714 1455.9 1710.2 C 1454.8 1706.5 1453.5 1702.1 1453 1700.5 C 1452.1 1697.3 1444.2 1670.9 1440.8 1660 C 1439.7 1656.4 1438.5 1652.1 1438 1650.5 C 1437.5 1648.8 1436.2 1644.3 1435 1640.5 C 1433.8 1636.6 1432.5 1632.1 1432 1630.5 C 1431.5 1628.8 1430.3 1624.6 1429.2 1621 C 1428.1 1617.4 1426 1610.4 1424.5 1605.5 C 1423 1600.5 1419.6 1589.1 1416.8 1580 C 1414 1570.9 1410.5 1559.2 1409 1554 C 1407.4 1548.8 1405.2 1541.3 1404 1537.5 C 1401.8 1530.2 1399.1 1521.4 1392 1497.5 C 1389.7 1489.8 1386.2 1478.3 1384.3 1472 C 1382.4 1465.7 1380.4 1459.1 1380 1457.5 C 1379.5 1455.8 1378.6 1452.9 1378 1451 C 1377.4 1449.1 1376.5 1446.1 1376 1444.5 C 1375.5 1442.8 1374.2 1438.3 1373 1434.5 C 1371.8 1430.6 1370.5 1426.1 1370 1424.5 C 1369.6 1422.8 1366.2 1411.6 1362.5 1399.5 C 1358.8 1387.4 1355.4 1376.1 1355 1374.5 C 1354.5 1372.8 1353.2 1368.3 1352 1364.5 C 1350.8 1360.6 1349.5 1356.1 1349 1354.5 C 1348.5 1352.8 1347.6 1349.9 1347 1348 C 1346.4 1346.1 1345.5 1343.1 1345 1341.5 C 1344.6 1339.8 1342.6 1333.3 1340.7 1327 C 1338.8 1320.7 1335.3 1309.2 1333 1301.5 C 1330.7 1293.8 1327.9 1284.6 1326.8 1281 C 1325.7 1277.4 1324.5 1273.1 1324 1271.5 C 1323.5 1269.8 1322.2 1265.3 1321 1261.5 C 1319.8 1257.6 1317.6 1250.2 1316 1245 C 1314.4 1239.8 1311.1 1228.5 1308.5 1220 C 1305.9 1211.5 1302.6 1200.2 1301 1195 C 1299.4 1189.8 1297.2 1182.3 1296 1178.5 C 1294.8 1174.6 1292.6 1167.2 1291 1162 C 1289.5 1156.8 1287.4 1149.9 1286.3 1146.7 L 1284.5 1140.9 L 1277 1146.1 Z"></path>
</svg>